<svg xmlns="http://www.w3.org/2000/svg" xmlns:xlink="http://www.w3.org/1999/xlink" viewBox="0 0 212 64"><defs><path id="a" d="M.034.34h39.055v48.947H.034z"/></defs><g fill="none" fill-rule="evenodd"><path fill="#4E1F1C" d="M210.84 15.165h-.214v-.41h.271c.14 0 .29.027.29.197 0 .203-.166.213-.347.213zm.553-.204c0-.247-.149-.368-.463-.368h-.509v1.286h.205v-.553h.217l.359.553h.22l-.376-.567c.195-.02.347-.118.347-.351z"/><path fill="#4E1F1C" d="M210.845 16.177c-.509 0-.898-.406-.898-.945 0-.526.39-.933.898-.933.503 0 .892.407.892.933 0 .539-.389.945-.892.945zm0-2.04a1.09 1.09 0 00-1.095 1.095c0 .633.5 1.107 1.095 1.107a1.09 1.09 0 001.09-1.107c0-.621-.498-1.095-1.09-1.095zm-27.013 45.744h-5.557V44.182l5.557 15.699zm-21.566 0c3.015-.918 5.403-3.935 5.403-8.669v-17.29c0-4.63-1.997-7.477-5.115-8.614h9.218v34.573h-9.506zm-18.481-14.888c2.595-1.272 3.055-3.828 3.055-8.37v-1.686c0-5.976-1.703-8.935-6.29-9.629h15.03c-3.122 1.137-5.1 3.983-5.1 8.613v17.291c0 4.682 1.98 7.662 5.473 8.669h-7.79l-4.378-14.888zm-7.528 14.888V31.19h2.058c1.397 0 2.132.643 2.132 2.664v4.88c0 1.89-.847 2.577-2.132 2.577h-1.339l3.806 18.57h-4.525zm-13.886 0V40.767h.045V31.11h5.072l-1.49-5.802h3.752l-.024 34.573h-7.355zm-17.708 0c2.835-1.087 5.184-4.164 5.184-8.97v-1.03c0-3.916-2.21-7.348-6.979-10.202-3.04-1.82-3.894-3.052-3.894-6.024 0-1.972 1.067-2.57 2.059-2.57.954 0 2.093.555 2.093 2.787v3.002l6.354-1.517v-.88c0-4.578-2.11-7.898-5.324-9.169h7.905l-1.49 5.802h5.1v9.657h.019V59.88h-11.027zM88.945 25.308h8.944c-3.234 1.247-5.305 4.453-5.305 8.784v.513c0 4.553 2.307 7.985 6.612 10.508 3.505 2.055 4.15 3.102 4.15 5.986 0 2.401-1.283 3.004-2.278 3.004-1.027 0-2.35-.514-2.35-3.004V48.3l-6.426 1.516v.625c0 4.847 2.222 8.131 5.65 9.42.02.007.042.012.063.02h-9.06V25.308zM78.882 59.881l3.6-20.426v20.426h-3.6zm-7.857 0V39.584l3.561 20.297h-3.561zm-9.002 0l-4.378-14.888c2.595-1.272 3.053-3.828 3.053-8.37v-1.686c0-5.976-1.701-8.935-6.287-9.629h10.148v34.573h-2.536zm-11.906 0V31.19h2.057c1.398 0 2.133.643 2.133 2.664v4.88c0 1.89-.847 2.577-2.133 2.577h-1.338l3.806 18.57h-4.525zm4.488-42.68l9.97.042v4.948H51.215l3.39-4.99zm15.613 4.99h3.72v-4.944h-3.72v4.944zm0-14.422c0-2.101 1.069-2.345 1.86-2.345.812 0 1.86.244 1.86 2.345v4.088h-3.72V7.769zm9.889 17.54l-3.355 19.254-3.354-19.255h6.709zm8.846-19.461h1.779c1.207 0 1.842.52 1.842 2.217v1.29c0 1.588-.72 2.163-1.842 2.163h-1.201l2.684 10.673h-3.262V5.848zm36.226 16.344h3.46V14.12h-3.46v8.072zm36.025 29.222c0 2.575-1.21 2.875-2.128 2.875-.919 0-2.132-.3-2.132-2.875V33.908c0-2.62 1.14-2.92 2.132-2.92.99 0 2.128.3 2.128 2.92v17.506zm-1.106-45.566h1.778c1.207 0 1.842.52 1.842 2.217v1.29c0 1.588-.72 2.163-1.842 2.163h-1.2l2.684 10.673h-3.262V5.848zm16.325 16.343h-6.948l-1.853-5 12.837-.02-4.036 5.02zm6.148 3.117v15.6L177 25.308h5.571zm.29-19.463h-6.95l4.6 6.024-12.777-.01c1.015-.81 1.507-2.631 1.507-3.774v-.726c0-5.36-2.198-7.07-7.492-7.07h-7.26V22.19h-4.505l1.49-5.2h-7.454v-3.17h5.908V8.987h-5.908V5.9h7.455L149.686.363H138.45V22.19h-4.243V.363h-5.569v8.465h-3.46V.363h-5.59V22.19h-7.72c2.518-1.006 4.098-3.325 4.098-7.005v-.447l-5.57-1.516v1.694c0 2.156-.991 2.402-1.834 2.402-.867 0-1.835-.246-1.835-2.402v-7.08c0-2.128 1.034-2.373 1.835-2.373.78 0 1.834.245 1.834 2.373v1.67l5.57-1.516V7.57c0-5.078-3.038-7.562-7.404-7.562-4.367 0-7.405 2.484-7.405 7.562v7.617c0 3.68 1.579 5.999 4.098 7.005H98.33l-2.823-7.406c1.865-.577 2.59-2.42 2.59-5.974v-.726c0-5.807-1.968-7.796-7.492-7.796h-7.26V22.19h-3.766V7.86c0-5.04-3.076-7.842-7.5-7.842-4.383 0-7.503 2.802-7.503 7.842v3.96l-9.964.02-4.05-5.995h-7.41l6.269 8.67-5.809 7.676-.049 40.914h145.515l.052-40.914h-5.849l5.873-7.74-6.294-8.606zm19.553 8.262c-5.484 0-9.3 3.308-9.3 10.06v29.268c0 6.704 3.816 9.988 9.26 9.988 5.485 0 9.267-3.284 9.267-9.988l.033-9.861h-9.36l-1.489 6.286 3.855.008v3.685c0 2.814-1.312 3.142-2.306 3.142-.953 0-2.266-.328-2.266-3.142V24.115c0-2.834 1.313-3.164 2.306-3.164.994 0 2.304.33 2.304 3.164v5.742l6.994-2.237v-3.453c0-6.752-3.814-10.06-9.298-10.06"/><g transform="translate(0 13.838)"><path fill="#4E1F1C" d="M27.942 29.744V9.96c0-2.574 1.273-2.873 2.214-2.873.967 0 2.214.299 2.214 2.873v19.784h-4.428zM30.156.34c-5.217 0-8.932 3.43-8.932 9.601v39.346h6.718V36.03l4.428-.005v13.262h6.72V9.94c0-6.17-3.664-9.6-8.934-9.6zm-20.15 36.035c0 2.143-1.2 2.592-2.207 2.592-.453 0-1.936-.12-1.936-1.678 0-1.08.685-1.704 2.117-1.704h.427v-5.562H8.16c-1.324 0-1.997-.63-1.997-1.873 0-1.162.722-1.577 1.396-1.577.334 0 1.425.1 1.425 1.383v.14h5.772v-.14c0-4.237-3.094-7.432-7.197-7.432-4.104 0-7.2 2.982-7.2 6.937 0 2.267.983 4.239 2.693 5.016C1.49 33.282 0 35.204 0 37.918c0 4.711 3.127 7.265 7.769 7.265 2.956 0 7.894-1.218 8.009-9.305h1.68l1.295-5.855h-8.748v6.352" /></g></g></svg>
