<svg xmlns="http://www.w3.org/2000/svg" xmlns:xlink="http://www.w3.org/1999/xlink" viewBox="0 0 242 64"><defs><path id="a" d="M.047.4h55.579v63.564H.047z"/><path id="c" d="M.035.395H102V62.82H.035z"/><path id="e" d="M.286.4H24.02v63.564H.286z"/></defs><g fill="none" fill-rule="evenodd"><path d="M225.445 32.2c0 17.113-13.818 30.986-30.863 30.986S163.72 49.313 163.72 32.2s13.818-30.985 30.863-30.985 30.863 13.872 30.863 30.985" fill="#C82B35"/><path fill="#1A1919" d="M24.36 63.413h10.53V.988H24.36z"/><g transform="translate(35.415)"><path fill="#1A1919" d="M.047 53.512v9.9h6.114l.083-9.9H.047M18.451 54.492c-.627-.126-.884-.695-.884-1.652V11.56c0-1.116.2-1.702.884-1.82V.4h-.55C10.045.4 6.619 5.1 6.619 12.736v39.183C6.619 59.553 10.631 64 17.901 64h.55v-9.508M19.573.4h-.55v9.342c.702.132.968.775.968 1.818v41.28c0 .959-.323 1.527-.968 1.652V64h.634c6.853 0 11.198-4.279 11.198-12.082V12.735C30.855 5.267 27.429.4 19.573.4M43.221 54.492c-.626-.126-.883-.695-.883-1.652V11.56c0-1.116.2-1.702.883-1.82V.4h-.55C34.817.4 31.39 5.1 31.39 12.736v39.183C31.39 59.553 35.4 64 42.672 64h.55v-9.508M44.343.4h-.55v9.342c.703.132.968.775.968 1.818v41.28c0 .959-.323 1.527-.967 1.652V64h.633c6.853 0 11.199-4.279 11.199-12.082V12.735C55.626 5.267 52.199.4 44.343.4"/></g><path fill="#1A1919" d="M221.44 10.525h19.974V.988H221.44zM226.203 63.413h10.447V11.1h-10.447zM139.577 63.413h10.575V.988h-10.575zM152.446.988v24.248h-1.722v10.992h1.722v27.185h10.531V.988h-10.53M106.734.988h-4.163v8.558h.402c1.004 0 1.254.671 1.254 1.93v41.029c0 1.426-.25 2.098-1.254 2.098h-.402v8.81h4.33c4.597 0 8.024-2.937 8.024-9.482V9.966c0-6.629-3.594-8.978-8.19-8.978"/><g transform="translate(0 .593)"><path fill="#1A1919" d="M101.999 54.01h-.028V8.953H102V.395h-10.39V62.82h10.39v-8.81M.035 62.82h10.573V.395H.035z"/></g><path d="M18.971 29.515c1.337-.42 4.095-2.349 4.095-6.544V8.875c0-5.622-2.758-7.887-7.02-7.887H11.18v7.887h.186c1.086 0 1.253.42 1.253 1.51v14.683c0 1.091-.334 1.595-1.253 1.595h-.186v7.719h.437c1.002 0 1.253.503 1.253 1.678v17.62c0 1.09-.167 1.594-1.253 1.594h-.437v8.139h4.782c5.182 0 7.94-3.272 7.94-9.482V36.815c0-5.034-3.176-6.796-4.931-7.3" fill="#1A1919"/><g transform="translate(115.098)"><path d="M13.407 9.798v13.257h10.196V9.295C23.603 4.26 21.179.4 13.573.4h-.987v8.075c.565.094.82.516.82 1.322M10.65 53.596V37.99H.285v16.36c0 6.378 3.427 9.65 10.363 9.65h.964v-8.74c-.732-.066-.964-.711-.964-1.664" fill="#1A1919"/><path d="M18.254 28.676l-5.349-4.699c-1.336-1.174-1.67-1.845-1.67-3.523V9.798c0-.785.243-1.202.778-1.31V.4h-.862C3.629.4.537 4.344.537 10.133V21.21c0 4.699 1.504 8.139 5.097 11.159l5.433 4.699c1.587 1.426 1.838 2.265 1.838 4.279v12.166c0 .882-.17 1.483-.72 1.683V64h.888c7.604 0 10.948-4.447 10.948-11.076V40.507c0-5.453-1.505-8.307-5.767-11.83" fill="#1A1919" /></g><path d="M222.73 61.76h.21c.244 0 .441-.082.441-.28 0-.176-.128-.292-.406-.292-.117 0-.198.011-.245.023v.549zm-.011 1.086h-.443V60.93c.175-.035.42-.059.733-.059.36 0 .523.059.663.14a.533.533 0 01.186.42c0 .211-.163.374-.395.444v.024c.186.07.29.21.349.467.057.292.093.409.14.479h-.478c-.058-.07-.093-.245-.151-.467-.035-.21-.151-.304-.396-.304h-.208v.77zm-1.175-1.004c0 .852.627 1.53 1.489 1.53.836 0 1.453-.678 1.453-1.519 0-.852-.617-1.54-1.465-1.54-.85 0-1.477.688-1.477 1.529zm3.43 0c0 1.085-.848 1.938-1.953 1.938-1.093 0-1.966-.853-1.966-1.938 0-1.063.873-1.915 1.966-1.915 1.105 0 1.953.852 1.953 1.915z" fill="#1A1919"/></g></svg>
