<svg xmlns="http://www.w3.org/2000/svg" xmlns:xlink="http://www.w3.org/1999/xlink" viewBox="0 0 371 61"><defs><path id="a" d="M.224.73h370.212v60.044H.224z"/></defs><g fill="none" fill-rule="evenodd"><g><path d="M13.823 49.254h3.684c2.869 0 9.155-.27 13.643-4.066 3.232-2.714 5.835-7.86 5.835-14.55 0-6.506-2.603-10.662-4.937-13.011-4.488-4.518-10.322-5.15-14.541-5.15h-3.684v36.777zM18.939.731c7.903 0 16.25 1.174 23.611 8.312 5.296 5.15 8.62 12.198 8.62 21.595 0 9.49-3.234 16.354-8.171 21.327C34.74 60.368 24.415 61 19.392 61H0V.73h18.94zM61.755 60.774h13.823V.731H61.755zM97.655.73l15.173 38.585L128.001.731h14.9L117.497 61h-9.335L82.755.73h14.9M150.075 60.774h13.823V.731h-13.823zM177.269 61V.73H189.3l32.497 38.856V.731h13.823V61h-12.028l-32.497-39.036V61H177.27M248.987 60.774h13.823V.731h-13.823zM297.188 12.477V61h-13.823V12.477H270.35V.73h39.853v11.746h-13.015M335.156 32.896L313.704.731h16.336l12.032 18.703L354.099.73h16.337l-21.453 32.165V61h-13.827V32.896" fill="#1A1919" /></g><path d="M363.913 60.462l-.187-3.016c-.018-.399-.018-.888-.037-1.434h-.056c-.135.452-.285 1.054-.434 1.524l-.916 2.847h-1.048l-.916-2.918c-.097-.4-.247-1.001-.355-1.453h-.06c0 .47-.015.964-.034 1.434l-.187 3.016h-.976l.378-5.128h1.515l.878 2.504c.116.399.206.771.337 1.302h.019c.13-.47.247-.903.359-1.28l.875-2.526h1.462l.393 5.128h-1.01zm-5.505-5.128v.847h-1.627v4.28h-1.01v-4.28h-1.63v-.847h4.267z" fill="#1A1919"/></g></svg>
