<svg xmlns="http://www.w3.org/2000/svg" xmlns:xlink="http://www.w3.org/1999/xlink" viewBox="0 0 136 64"><defs><path id="a" d="M0 .002h63.272v63.983H0z"/></defs><g fill="none" fill-rule="evenodd"><g><path d="M0 16.933C.014 12.97 3.68 7.67 7.553 5.406 15.194 1.015 23.013-.86 31.01.374c4.923.89 7.955 4.624 7.826 7.96-.15 3.599-3.331 5.17-8.217 5.161-5.35-.044-10.606.792-15.77 2.348-.06 3.858-.104 7.655-.112 11.39 4.289-1.085 8.652-1.915 13.093-2.393 4.678-.448 7.183 2.026 6.518 5.825-.674 3.83-3.684 6.673-7.794 7.43-3.966.696-7.852 1.427-11.66 2.108.17 5.785.495 11.402 1.059 16.85.391 4.566-.794 6.702-2.803 5.852-1.983-.885-4.486-3.784-6.198-7.286C1.773 44.003-.022 31.3 0 16.933" fill="#24B9DB"/><path d="M37.56 41.045c.674 6.43 3.93 10.556 7.764 8.679 3.86-1.864 5.575-7.14 5.637-12.352.037-5.188-2.037-9.359-6.755-8.947-4.7.427-7.328 6.2-6.646 12.62zm23.296 6.35c.148 2.837-1.259 6.07-3.643 7.514-1.979 1.182-3.603.086-4.517-1.363-1.313 4.164-2.892 6.838-5.775 8.897-3.259 2.378-7.02 2.058-10.626-1.142-3.55-3.146-6.944-9.172-8.16-16.945-1.276-7.738.095-15.339 3.185-20.44 3.06-5.181 7.838-7.863 12.694-7.576 4.25.22 6.87 1.823 8.776 4.942 1.093-1.698 3.264-3.34 6.04-3.008 3.366.43 4.988 2.837 4.278 5.454-1.979 7.55-2.756 15.543-2.252 23.667z" fill="#24B9DB"/></g><path d="M65.11 25.51c.198-2.634 2.09-7.114 4.296-8.18 2.156-.882 4.095 3.034 4.821 6.208a342.214 342.214 0 014.726 28.35c.507 3.23-1.248 7.444-6.811 6.091-5.564-1.518-7.85-6.11-7.794-8.678-.12-7.879.139-15.75.763-23.792M83.335 31.264c-.382.146-.762.29-1.141.432-3.125 1.148-5.42.56-6.113-2.044-.68-2.623 1.429-4.645 5.184-6.434.447-.21.895-.426 1.344-.644a255.825 255.825 0 01-.334-6.343c-.16-2.776 2.634-6.762 6.828-9.363 4.199-2.597 6.742-1.499 6.259 1.966a455.08 455.08 0 00-.91 7.671c1.106-.56 2.22-1.11 3.338-1.644 3.942-1.89 6.11-.997 5.208 3.088-.89 4.09-3.42 6.603-6.726 7.946-.956.39-1.906.787-2.85 1.186a364.018 364.018 0 00-1.211 21.912c-.119 3.096-1.265 5.318-2.774 4.98-1.506-.331-2.967-2.42-3.493-4.849a203.61 203.61 0 01-2.61-17.86M105.677 13c.234-2.593 2.315-5.573 5.282-6.913 2.964-1.34 5.077.051 4.882 2.993-.259 3.886-.813 7.763-1.488 11.618l.13-.036c2.315-1.867 5.127-3.952 9.053-5.246 7.053-2.427 12.219-.095 10.258 9.996-1.45 7.47-2.98 14.864-3.765 22.123-.38 3.416-2.442 6.098-5.264 6.027-2.818-.071-4.739-2.574-4.44-5.64.542-5.658 1.62-11.412 2.763-17.228.762-3.847-.767-6.174-4.28-5.313-3.507.855-6.095 3.86-6.77 7.25-1.027 5.213-1.956 10.363-2.37 15.42-.237 2.79-2.189 4.863-4.998 4.635-2.806-.23-4.802-2.345-4.631-4.787.755-11.222 4.603-22.99 5.638-34.898M77.62 6.905c.927 2.935-.856 6.128-3.982 7.132-3.127 1.004-6.412-.561-7.34-3.497-.926-2.935.857-6.128 3.983-7.132 3.127-1.004 6.412.562 7.34 3.497M133.861 49.38a1.058 1.058 0 00-.368-.052h-.155v.71h.247c.148 0 .264-.03.348-.09.083-.059.124-.156.124-.29 0-.134-.065-.227-.196-.279zm-1.16 1.966v-2.45a238.44 238.44 0 011.178.007c.192.014.352.055.479.125.216.12.324.315.324.585 0 .206-.057.355-.171.446a.792.792 0 01-.42.164c.152.032.267.08.344.142.143.116.214.3.214.55v.218a.533.533 0 00.022.144l.023.069h-.607a1.805 1.805 0 01-.04-.339 1.125 1.125 0 00-.04-.3.297.297 0 00-.178-.18.715.715 0 00-.218-.039l-.14-.009h-.133v.867h-.636zm-.326-2.51c-.349.36-.524.787-.524 1.28 0 .512.178.947.532 1.305a1.73 1.73 0 001.28.537c.496 0 .922-.18 1.274-.54.353-.362.53-.796.53-1.301 0-.492-.176-.919-.527-1.28a1.712 1.712 0 00-1.278-.552c-.503 0-.933.184-1.287.552zm2.82 2.867a2.118 2.118 0 01-1.533.623 2.108 2.108 0 01-1.558-.638c-.422-.426-.633-.95-.633-1.571 0-.646.228-1.182.683-1.61.429-.4.931-.6 1.508-.6.605 0 1.12.216 1.549.648.428.431.642.952.642 1.562 0 .627-.219 1.156-.657 1.586z" fill="#24B9DB"/></g></svg>
