<svg xmlns="http://www.w3.org/2000/svg" xmlns:xlink="http://www.w3.org/1999/xlink" viewBox="0 0 167 64"><defs><path id="a" d="M.027.222H35.13V49.67H.027z"/><path id="c" d="M.16.222h82.905v63.751H.161z"/></defs><g fill="none" fill-rule="evenodd"><g><path fill="#000203" d="M20.44.222l-.737 5.7 4.428 1.923-2.486 19.2L16.417.221H1.727l-.738 5.7 4.428 1.923L0 49.67h10.013l3.443-26.587 5.259 26.587h10.012L35.13.222H20.44"/></g><path fill="#000203" d="M70.596.222l-.738 5.7 4.428 1.923-2.486 19.2L66.572.221h-14.69l-.738 5.7 4.428 1.923-5.417 41.825h10.013l3.443-26.587L68.87 49.67h10.012L85.286.222h-14.69M36.241.222l-.738 5.7 4.428 1.923-5.416 41.825h10.012L50.931.222h-14.69M104.879.222l-.75 5.7 4.737 2.227-12.704 41.52h10.013l10.356-34.827 1.388 23.065h-6.324l-.74 5.7 17.887 6.75L125.15.222h-20.27"/><g transform="translate(82.556)"><path fill="#000203" d="M83.065.23H71.352L61.334 20.72 63.989.221h-14.69l-.739 5.7 4.428 1.923-5.416 41.825h10.013l3.28-25.32 5.982 25.32h11.345l-7.68-26.928L83.066.23M3.79.222l-.739 5.7L7.48 7.847.16 64l10.782-5.939L18.48.222H3.79"/></g><path d="M162.767 48.305h.148c.173 0 .313-.058.312-.2 0-.124-.092-.207-.29-.207a.762.762 0 00-.173.017l.003.39zm-.004.765h-.313l-.009-1.363c.125-.017.297-.042.52-.042.256 0 .371.042.462.108a.347.347 0 01.143.291c0 .167-.123.274-.279.324v.017c.132.042.199.15.241.333.044.208.076.282.102.332h-.33c-.042-.05-.067-.166-.11-.332-.025-.142-.11-.208-.281-.208h-.149l.003.54zm-.836-.707c.004.608.46 1.09 1.062 1.09.585.008 1.027-.482 1.023-1.082-.004-.606-.451-1.097-1.053-1.097-.585 0-1.036.491-1.032 1.09zm2.432 0a1.357 1.357 0 01-1.377 1.372 1.384 1.384 0 01-1.402-1.372c-.004-.764.61-1.363 1.394-1.363.767 0 1.38.599 1.385 1.363z" fill="#000203"/><path d="M95.592 3.216c-1.245 0-2.387 1.018-2.549 2.274-.162 1.255.715 2.273 1.96 2.273 1.246 0 2.388-1.018 2.55-2.273.162-1.256-.716-2.274-1.961-2.274M94.802 9.326c-1.245 0-2.387 1.017-2.55 2.273-.162 1.256.716 2.273 1.962 2.273 1.245 0 2.386-1.017 2.548-2.273.163-1.256-.715-2.273-1.96-2.273M94.012 15.435c-1.246 0-2.387 1.018-2.55 2.273-.162 1.256.717 2.274 1.962 2.274 1.246 0 2.386-1.018 2.548-2.274.163-1.255-.716-2.273-1.96-2.273M93.221 21.545c-1.244 0-2.385 1.017-2.548 2.273-.162 1.255.716 2.273 1.96 2.273 1.246 0 2.387-1.018 2.549-2.273.163-1.256-.715-2.273-1.96-2.273" fill="#FFFFFE"/></g></svg>
