<svg xmlns="http://www.w3.org/2000/svg" viewBox="0 0 120 64"><g fill="none" fill-rule="evenodd"><path d="M41.516 39.186h-2.852V11.254H34.57v28.69c0 2.007 1.697 3.64 3.784 3.64h3.473c2.086 0 3.782-1.633 3.782-3.64v-28.69h-4.093v27.932M68.336 11.254h-7.255v32.33h4.092v-27.93h2.853v27.93h4.094V14.897c0-2.008-1.698-3.642-3.784-3.642M74.172 15.653h3.472v27.932h4.094V15.653h3.474v-4.399h-11.04v4.4M94.271 39.186h-2.853V11.254h-4.092v28.69c0 2.007 1.697 3.64 3.782 3.64h3.474c2.086 0 3.783-1.633 3.783-3.64v-28.69h-4.094v27.932M113.22 11.254h-12.792v32.33h4.093v-27.93h2.167v27.873h4.055V15.653h2.167v27.932h4.092v-28.69c0-2.007-1.697-3.64-3.782-3.64M54.862 15.653v7.216l-2.852 2.87V15.654h2.852zm-6.946-.757v28.689h4.094V31.383l2.852-2.842v15.044h4.094v-28.69c0-2.007-1.698-3.64-3.784-3.64H51.7c-2.085 0-3.782 1.633-3.782 3.64zM11.271 43.342V11.295h9.85v31.926l8.76 9.168c1.376-1.281 2.065-2.79 2.065-4.53V6.872c0-1.868-.794-3.472-2.382-4.81C27.977.722 26.075.053 23.86.053H8.086c-2.29 0-4.21.654-5.76 1.962C.776 3.322 0 4.94 0 6.872v40.987c0 1.93.775 3.55 2.326 4.857 1.55 1.307 3.47 1.961 5.76 1.961h7.461l5.21 5.45H34.42L18.382 43.342H11.27" fill="#00A3DA"/><path d="M71.067 22.379a3.732 3.732 0 00-.626-1.184l-.124-.16-.16.128a.778.778 0 01-.261.147c-.093.026-.276.028-.624-.11-.37-.147-.667-.186-.907-.118-.215.06-.45.22-.717.488-.296.297-.408.544-.343.754.028.087.067.177.117.266-1.099 3.123-1.828 4.952-4.157 12.869-2.059 6.973-3.874 12.51-5.398 16.46-.697-.16-1.28-.765-1.731-1.802-.397-.91-.795-1.842-1.182-2.77l-.022-.055-.05-.032c-.285-.185-.5-.503-.638-.944a7.32 7.32 0 01-.152-.64 7.511 7.511 0 00-.162-.677l-1.108-3.86c-.553-1.768-.845-2.906-.867-3.38l-.005-.095-.083-.053c-.575-.367-1.19-.462-1.827-.284l-.447.125-.04.055c-.814 1.112-1.601 2.804-2.338 5.026-.792 2.343-1.44 4.004-1.932 4.943l-.002-.001c.366-2.699.728-5.436 1.075-8.138.436-3.32.602-6.13.492-8.35l-.005-.106-1.042-.547-1.13.316c-.44.124-.726.294-.874.522l-.028.043-.084 2.747c-.038 1.042-.199 1.905-.477 2.567l-.016.037.002.04c.086 2.28-.17 5.536-.76 9.677-.63 4.455-.953 7.726-.962 9.722.004.649.082 1.225.235 1.712.21.671.555 1.14 1.027 1.39l.106.057.1-.065c.966-.62 1.662-1.133 2.067-1.523l.028-.026.015-.035c.586-1.343 1.377-3.806 2.35-7.32.8-2.877 1.631-5.161 2.471-6.8.195.454.5 1.136.913 2.036.45.979.778 1.794.974 2.422.11.353.201.696.27 1.017l.009.04.025.034c.288.38.613 1.143.965 2.27l.03.059c.962 1.234 1.597 2.207 1.89 2.89l.032.051c.25.279.449.493.582.625.904 1.073 1.742 1.56 2.492 1.45l.005.011.176-.049-.055-.181c-.004 0 0-.001 0-.002l.003-.001.094.164c.024-.012.104-.048.24-.106l.037-.016.028-.03c1.024-1.082 1.869-2.471 2.51-4.125.2-.473.673-1.953 1.444-4.52.368-1.135.663-1.993.876-2.549l.008-.024c.09-.387.152-.69.185-.897l1.338-4.704c.234-.695.338-1.18.316-1.478.906-2.424 1.053-2.298 2.427-7.055l1.035-3.684c.22-.695.388-1.217.51-1.583.103-.433.336-.695.712-.8.768-.216 1.185-.51 1.274-.902.08-.35.032-.8-.15-1.38M72.082 38.13c.046 1.64.058 4.1-.927 6.211-.894 1.791-2.011 3.289-3.235 4.917.004-1.69.215-3.713 1.049-5.728.542-1.295 1.66-3.417 3.113-5.4zm2.842-2.331l.128-1.014-.305-1.71-.1-.042c-.928-.39-1.77-.447-2.503-.171-.758.285-1.494.987-2.186 2.082-1.143 1.736-1.525 2.238-1.644 2.353l-.032.03-.016.042a1715.66 1715.66 0 00-2.954 7.82c-.997 3.135-1.038 5.82-.123 7.982l.015.037.03.028c.371.356.86.535 1.46.535.496 0 1.068-.122 1.714-.365.09-.035.207-.087.358-.16.135-.066.234-.11.297-.134l.056-.021.035-.047c4.716-6.308 6.657-12.11 5.77-17.245zM81.573 38.654c.55.534-.061 3.289-.876 5.043-.75 1.513-1.65 4.036-2.845 5.155.045-1.425-.056-4.276.634-5.945.454-1.086 2.303-4.554 3.087-4.253zm3.113-2.842l-.379-1.112-.408-.488-.097-.047c-.767-.366-1.468-.438-2.085-.213-.634.23-1.368.783-2.035 1.662-.921 1.214-1.184 1.895-1.284 1.992l-.031.03-.015.04c-1.097 1.933-1.663 3.967-2.503 6.205-.863 2.695-.87 5.623-.147 7.524l.014.036.027.029c.322.34.755.51 1.292.51.395 0 .847-.092 1.354-.276.073-.027.173-.07.3-.13.11-.053.191-.089.243-.108l.056-.02.036-.048c3.965-5.347 6.319-11.11 5.662-15.586zM91.41 39.297l-1.326 3.895c-.74 1.974-1.51 3.648-2.288 4.98a.842.842 0 00-.412.268c-.138.153-.19.18-.192.18a.061.061 0 01-.032.003c-.67-3.233.156-6.196 2.716-8.54.662-.606.707-.583 1.056-.71a.554.554 0 00.478-.076zm7.928-22.144a2.109 2.109 0 00-.268-.45l-.048-.064-.077-.021a1.148 1.148 0 00-.759.037.937.937 0 00-.391.288l-.338-.173-.046.328c-.245 1.755-.432 2.923-.553 3.461-.224.818-.4 1.43-.526 1.82l-.009.037a7.93 7.93 0 00-.084.716c-.139 1.042-.375 2.272-.706 3.668-.032.17-.36.58-.767 2.18a440.824 440.824 0 00-.66 2.764l-.054.168-.047.092a2.76 2.76 0 00-.1.33l-.35 1.406c-.185.55-.419.886-.696.998-.191.078-.405.085-.653.022l-.112-.029-.091.073c-5.225 4.21-7.865 8.436-7.849 12.56v.048l.019.044c.108.262.244.683.404 1.25.167.595.308 1.027.429 1.32.522 1.267 1.364 1.88 2.502 1.82l.078-.004.06-.051c.674-.577 1.115-.96 1.304-1.133.055-.047.146-.15.523-.779.642-1.022 1.3-2.345 1.958-3.935.54-1.341 1.346-2.685 1.895-4.027.557-1.297.907-2.471 1.552-3.49l.041-.066-.004-.078c-.048-.727.106-1.653.457-2.753.304-.94.604-1.874.906-2.815.692-2.746.942-3.52 1.029-5.148.011-.21.02-.258.02-.258.004-.018.042-.133.33-.606.161-.252.227-.497.196-.729l.024-.014-.082-.2c0-.001 0-.002-.002-.003l-.218.092-.002-.003.093-.07.034.013a1.56 1.56 0 00.019-.052l.04-.03a.474.474 0 01-.02-.032c.155-.485.347-1.464.584-2.979.195-1.233.526-2.176.984-2.801l.031-.043.01-.052c.239-1.187.236-2.053-.01-2.647zM108.47 34.598c-.016-.487-.247-1.125-1.251-1.395l-.114-.031-.097.079c-1.27 1.026-2.697 2.368-4.247 3.992a108.48 108.48 0 00-1.417 1.556c-.44.42-.775.738-1.002.956l-1.276 1.558c-.373.444-.736.793-1.081 1.042a.926.926 0 01-.007-.076c-.012-.353.059-.834.21-1.433.28-1.14 1.073-3.795 1.09-3.918.012-.083.067-.298.303-.805.196-.432.284-.741.275-.973a1.185 1.185 0 00-.334-.773l-.068-.074-.093-.006a8.067 8.067 0 00-.988-.021c-.894.06-1.282.616-1.45 1.072l-.013.045c-.123.554-.949 3.378-1.003 3.745-.64 2.511-.943 4.01-.923 4.58.042 1.205.513 2.152 1.398 2.812l.094.07.11-.032c1.475-.427 3.27-1.55 4.834-3.509 1.646-2.064 1.924-2.411 2.626-3.067-.238.641-.359 1.589-.57 2.165-2.045 5.582-.37 2.706-4.777 10.365l-.577 1.002c-.9 1.183-.986 1.329-1.527 2.26-.251.43-.594 1.019-1.163 1.96l-.02.039c-.183.417-.815.95-1.193 1.267-.354.299-.473.4-.506.558-.078.33-.129.557-.153.68-.567 2.003-.561 2.172-.558 2.274.02.56.27 1.026.742 1.384l.07.054.184-.012c.31-.022.635-.262.993-.734.317-.419.524-.516.642-.524a.426.426 0 01.156.018l.184.055 3.34-5.99.05-.144-.005-.061c.02-.08.15-.43.952-1.727l.23-.432c-.007.097.611-1.063 1.043-1.915.127-.221.264-.47.401-.755.668-1.387 1.108-3.033 2.573-6.333 1.504-3.38 2.58-5.935 3.2-7.593l.027-.07-.006-.077c-.015-.221.027-.65.316-1.436.268-.73.391-1.277.377-1.672M109.599 47.767l-.048-.053c-.668-.748-1.573-.991-2.689-.72-.064.015-.196.055-.6.222l-.085.035-.04.081a2.693 2.693 0 00-.206 1.959c.007.022.019.068.14.37l.023.057.047.04c.404.34.867.508 1.383.505.196-.001.4-.027.611-.078 1.163-.281 1.673-1.093 1.475-2.347l-.011-.07M119.888 18.027c-.422-.53-.885-.739-1.372-.621-.403.097-.805.442-1.236 1.062l-.85 1.333-.005.058c-.353 3.712-1.157 5.73-3.645 11.547l-1.644 3.821c-.756 1.713-.788 1.821-.802 1.868a70.444 70.444 0 00-.509 1.766c-.815 2.567-1.182 4.36-1.12 5.485l.008.13.678.4.102-.03c.342-.097.642-.337.904-.729.162-.287.326-.568.49-.844l.02-.04c2.03-5.466 3.635-9.617 4.768-12.337.288-.296.507-.725.65-1.278.11-.433.224-.873.342-1.32.384-.96.498-1.217.643-1.543.055-.123.114-.256.195-.444.376-.91.497-1.205.528-1.33h.004c.076-.37.13-.658.156-.841.074-.354.124-.487.186-.655.044-.12.095-.255.162-.484.511-1.786.839-2.844 1.055-3.544.218-.704.308-.995.342-1.245l.014-.104-.064-.08M40.587 49.481c-.108-.544-.332-.92-.65-1.106-.257-.168-.584-.22-1.002-.162-.117.016-.285.05-.531.106a6.11 6.11 0 01-.487.097 2.31 2.31 0 01-.24.022c.017-.153.037-.297.06-.432l.329-.718c.158-.388.22-.723.19-1.025a1.475 1.475 0 00-.14-.494l-.115-.242-.246-.006a2.094 2.094 0 00-.333.018c-.483.068-.834.382-1.02.92-.047.148-.118.442-.19 1.272a6.217 6.217 0 01-.128.886l-.154.022.022.226-1.025.251c-.576.169-1.047.41-1.4.715l-.186.161.026.26c.041.423.192.76.446 1l.149.14.193-.036c.303-.056.897-.239 1.807-.555l-.043.617a8.393 8.393 0 00-.003 1.376c.029.3.084.586.163.848l.081.269.252.045c.08.014.16.02.236.02.271 0 .517-.087.723-.258l.148-.123.019-.205c.043-.475.062-1.07.055-1.765v-.171l-.006-1.18c.337-.086.654-.144.946-.173l.53.145c.289.066.523.084.717.057.28-.04.517-.175.705-.403l.15-.18-.048-.239" fill="#030003"/><path d="M118.75 41.662c.554 0 1.019.394 1.019.912 0 .527-.465.922-1.019.922-.556 0-1.024-.395-1.024-.922 0-.518.468-.912 1.024-.912zm0 1.698c.47 0 .835-.338.835-.786 0-.44-.365-.777-.835-.777-.475 0-.839.338-.839.777 0 .448.364.786.84.786zm-.396-1.318h.459c.282 0 .415.1.415.306 0 .195-.137.275-.312.292l.34.473h-.198l-.325-.46h-.196v.46h-.183v-1.071zm.183.475h.194c.163 0 .312-.007.312-.176 0-.143-.135-.164-.26-.164h-.246v.34z" fill="#00A3DA"/></g></svg>
