<svg xmlns="http://www.w3.org/2000/svg" xmlns:xlink="http://www.w3.org/1999/xlink" viewBox="0 0 211 64"><defs><path id="a" d="M.034.52H210.87v62.327H.034z"/></defs><g fill="none" fill-rule="evenodd"><g transform="translate(0 .577)"><path d="M184.28 6.023l-5.345 56.57C203.206 61.466 210.87.519 210.87.519s-26.806 5.486-26.59 5.504M78.076 32.536C90.943 23.122 94.006 4.07 94.006 4.07s-27.6 1.31-52.927 4.68c.89-4.846 1.284-7.976 1.284-7.976s-26.806 5.484-26.59 5.503l-.678 7.18C6.958 15.565 1.193 18.082 0 21.068l14.432-.603-4.005 42.382c15.36-.712 24.068-25.382 28.392-43.4l27.63-1.156-1.015 10.56-19.4-.835c-.02-.11-9.018 9.974-9.018 9.974s44.908 31.43 53.57 22.326L58.975 37.68c7.4-.686 14.853-2.154 19.102-5.144" fill="#000203"/></g><path d="M133.531 8.375C135.2 3.626 136.098.57 136.098.57s-26.62 5.486-26.406 5.504l-2.22 7.84c-7.705 2.246-13.176 4.813-13.654 7.627l11.728-.828-11.872 41.93c9.194-.422 17.094-8.617 23.834-19.504 17.191 1.85 36.857-1.639 39.01-7.963l-33.465-1.947c2.462-4.843 4.626-9.735 6.448-14.21l14.847-1.048c17.26 28.868 20.17 45.242 20.17 45.242 23.648-1.113.138-59.016.138-59.016S149.7 5.713 133.53 8.376M193.697 61.065h.21c.247 0 .446-.082.446-.282 0-.177-.129-.295-.41-.295-.117 0-.2.012-.246.024v.553zm-.011 1.096h-.446V60.23c.176-.035.422-.059.738-.059.363 0 .527.06.668.142a.537.537 0 01.188.423c0 .213-.164.378-.399.448v.023c.188.071.293.213.352.472.058.294.094.412.14.483h-.48c-.059-.07-.094-.247-.152-.471-.035-.212-.152-.307-.399-.307h-.21v.778zm-1.183-1.013c0 .86.632 1.543 1.499 1.543.843 0 1.464-.683 1.464-1.531 0-.86-.62-1.555-1.476-1.555-.855 0-1.487.695-1.487 1.543zm3.455 0a1.937 1.937 0 01-1.968 1.956c-1.101 0-1.98-.86-1.98-1.956 0-1.072.879-1.932 1.98-1.932 1.113 0 1.968.86 1.968 1.932z" fill="#000203"/><path d="M200.46 18.057c.027.049.073.054.099.022.015-.02.005-.031-.013-.031-.026 0-.052.005-.086.009zm-1.657-.024v.162c-.002.039.02.053.052.058.02.003.042.001.063 0 .11-.008.219-.019.328-.025.07-.004.102-.025.117-.093l.022-.122c.012-.056.025-.11.036-.166.016-.08.031-.158.042-.237.01-.068.012-.136.017-.204.001-.017-.001-.035.001-.052.013-.118.03-.237.041-.355.004-.044 0-.089 0-.133l.001-.02c.003-.054.01-.107.007-.159a7.728 7.728 0 00-.033-.345c-.01-.084-.025-.168-.037-.251-.01-.066-.021-.131-.03-.197-.003-.033.006-.068-.028-.092-.005-.004-.003-.018-.006-.027-.007-.024-.012-.048-.023-.07-.019-.034-.041-.068-.062-.102-.04-.063-.087-.082-.145-.07-.078.016-.157.026-.236.04-.096.014-.193.026-.29.044-.052.01-.104.025-.156.04-.017.006-.034.018-.051.027.014.017.024.04.042.05a.242.242 0 01.104.117.085.085 0 00.025.03.555.555 0 01.179.263l.03.12c.006.029.016.058.014.086-.003.068-.01.136-.016.204 0 .003-.002.005-.003.008-.029.134-.048.269-.047.406 0 .04-.008.081-.008.121.001.066.006.133.008.198 0 .021-.008.042-.006.062.006.075.018.15.022.224.004.077-.013.157.006.228.02.082.016.161.02.232zm-2.288.554a.515.515 0 00-.186-.127c-.07-.028-.135-.07-.204-.1-.064-.027-.097-.083-.134-.134-.022-.031-.029-.074-.045-.11-.047-.105-.094-.212-.145-.316a1.44 1.44 0 01-.115-.3c-.022-.09-.035-.181-.05-.273a.437.437 0 00-.193-.301c-.014-.01-.016-.036-.024-.055.017-.005.034-.015.05-.013.017.002.033.016.05.022.012.005.028.011.039.007.044-.016.08 0 .12.018.08.038.163.072.242.113.047.023.089.057.13.089.072.057.146.11.212.173a.858.858 0 01.12.146c.028.04.064.052.108.025l.2-.125c.086-.056.17-.113.257-.167.074-.043.15-.081.225-.123.04-.023.08-.05.121-.071l.478-.238.083-.041c.012.045-.014.061-.035.075l-.29.182c-.09.056-.183.11-.27.17a1.424 1.424 0 00-.176.146.409.409 0 00-.09.124c-.016.038-.025.073-.059.102-.041.037-.034.156-.001.206.016.024.022.054.033.082.005.014.008.03.017.041.03.04.03.08.012.127-.01.025-.006.056-.004.083.003.032.011.063.017.094.003.014.002.03.01.04.045.053.033.11.026.17a.25.25 0 00.013.103c.01.033.035.054.076.052.074-.005.148-.005.221-.01.051-.003.102-.01.152-.017.025-.003.054 0 .073-.012.042-.025.087-.017.13-.022.085-.012.168-.03.251-.045.013-.002.027 0 .037-.007.013-.009.033-.024.032-.035-.005-.078-.009-.157-.026-.232-.01-.048-.04-.091-.063-.136-.023-.048-.015-.097-.016-.147 0-.076.026-.146.036-.218.011-.079-.004-.16-.004-.241 0-.026.018-.051.02-.077.002-.034-.002-.068-.004-.102-.001-.013-.01-.027-.006-.039a.451.451 0 000-.242.646.646 0 01-.018-.179c.008-.146-.017-.29-.038-.433-.013-.088-.033-.175-.032-.265.001-.035-.009-.07-.017-.106-.01-.042-.046-.055-.087-.044-.06.016-.123.023-.182.037-.059.015-.116.032-.174.049-.022.006-.044.015-.067.018a.79.79 0 00-.2.062c-.027.012-.065 0-.098.003a.373.373 0 00-.08.01c-.06.016-.122.053-.18.048-.06-.005-.12.01-.176-.006-.07-.02-.136-.058-.204-.085-.053-.021-.108-.038-.162-.057-.011-.004-.023-.008-.034-.014-.079-.05-.158-.1-.236-.153-.04-.027-.076-.063-.116-.09-.059-.04-.122-.076-.18-.117-.025-.018-.041-.049-.065-.067a.595.595 0 00-.105-.064c-.107-.05-.215-.098-.322-.146-.023-.01-.049-.015-.069-.028-.014-.009-.03-.029-.03-.043 0-.024.022-.03.046-.029.037.002.073.004.11 0a.278.278 0 00.088-.027.194.194 0 01.102-.02c.061.004.123-.014.185-.022.018-.002.037-.001.056 0 .03 0 .06 0 .089.002.052.005.104.013.157.016.068.005.136.006.204.009.06.003.12.009.181.007.038 0 .076-.012.115-.015.049-.002.102.01.146-.003.058-.018.11 0 .163.002.038.001.077.008.113 0 .12-.03.243-.019.365-.026.085-.006.168-.027.252-.04.036-.005.073-.012.108-.008.083.007.154-.031.231-.045l.05-.008c.03-.005.061-.012.092-.016.05-.007.1-.011.149-.018.032-.004.065-.01.098-.013l.213-.029c.108-.015.215-.032.323-.046l.246-.03c.035-.005.07-.013.105-.02.006-.001.01-.005.016-.005l.294-.026c.008 0 .017 0 .025-.002.121-.04.248-.049.373-.066.042-.006.083-.02.125-.027.084-.012.17-.013.25-.035.058-.016.113-.01.169-.015l.23-.018a.085.085 0 00.036-.01.48.48 0 01.217-.055c.085-.006.159-.045.235-.077.034-.013.07-.022.105-.034.028-.01.062-.013.084-.031.071-.061.145-.042.222-.019.034.01.069.019.104.024.049.007.098.01.147.017.008 0 .02.007.024.015.034.068.105.07.163.076.095.012.166.064.243.11.024.014.047.033.074.04.087.023.158.076.231.125.045.031.087.07.126.11.04.04.074.087.106.133.007.01.004.035-.003.045a2.37 2.37 0 01-.127.155c-.01.01-.038.013-.05.006-.049-.026-.088-.001-.126.022-.043.025-.081.06-.126.08a.553.553 0 01-.143.037c-.068.01-.138.013-.207.017a.36.36 0 01-.07-.006c-.076-.01-.15-.023-.226-.002h-.013l-.35.009c-.09.003-.18.002-.269.01-.038.004-.072.01-.111.001-.04-.009-.086.001-.13.004-.013 0-.027.004-.04.001-.141-.03-.283-.01-.424-.016a1.592 1.592 0 00-.139 0c-.014.001-.036.011-.039.021-.003.013.006.032.016.044.009.01.024.02.039.022.056.012.087.055.12.096.007.01.016.02.025.028.1.09.157.204.202.328.012.033.032.064.04.097a.23.23 0 01.01.1 1.065 1.065 0 01-.064.198 1.095 1.095 0 00-.06.267c-.01.072-.007.146-.032.218-.01.029-.002.064-.004.096-.002.038 0 .077-.01.112a.505.505 0 00-.01.174c.004.051-.013.104-.023.156-.013.064-.026.13-.041.193-.005.02-.016.036-.022.055a.896.896 0 00-.02.088c-.007.045-.012.09-.017.136l-.009.096a.473.473 0 01-.013.069c-.011.037-.002.052.037.053.021 0 .042-.002.063 0 .052.006.093 0 .106-.064.002-.014.026-.03.043-.035a.537.537 0 00.226-.139c.071-.067.144-.132.21-.204.064-.068.129-.136.178-.215.059-.096.12-.19.15-.303.038-.138.097-.27.146-.406.016-.046.028-.095.047-.14.012-.03.036-.056.047-.086.023-.066.04-.134.062-.201l.022-.076c.022-.072-.036-.214-.089-.244-.106-.062-.203-.146-.334-.154a.875.875 0 01-.14-.017c-.023-.005-.042-.024-.063-.037l.003-.019c.068-.02.136-.044.206-.056.07-.013.143-.015.215-.018.031 0 .063.016.094.015a.714.714 0 01.197.026c.061.015.126.016.186.037.059.02.113.055.17.083.007.004.015.005.022.008.049.013.1.022.145.043.025.011.046.04.062.064a.27.27 0 00.099.092.551.551 0 01.128.103c.064.07.15.12.198.208.021.04.07.064.1.1.105.116.136.25.083.398-.025.071-.056.14-.083.21a.123.123 0 01-.081.081.307.307 0 00-.073.037c-.097.063-.195.125-.289.192-.061.044-.117.095-.175.142-.06.049-.118.101-.18.147-.065.046-.098.113-.141.173-.01.013-.027.03-.04.03-.054-.005-.093.021-.132.051l-.142.108c.024.009.039.02.054.02.097 0 .198-.021.289 0 .095.023.19.018.283.025.075.005.152.03.227-.002.002-.001.006-.003.008-.002.07.028.143-.01.21.01.075.022.142.003.21-.017.062-.018.123-.04.184-.06a.234.234 0 01.053-.01c.041-.002.081-.012.12-.018.062-.01.125-.015.188-.028.04-.008.087.025.131.037.046.013.093.03.142.008.028-.012.048-.011.07.02.016.023.048.036.075.048.02.01.043.009.063.017.072.029.144.057.214.09.023.01.04.034.061.051.054.044.09.11.17.116.016.002.031.016.046.025.01.007.02.017.031.021.104.033.183.11.275.163.044.026.079.07.096.124.01.033.03.063.05.094.014.026.022.05.008.081-.018.041-.03.083-.006.128.012.025.004.05-.019.072a.06.06 0 00-.014.045c.01.06-.028.11-.088.115a.114.114 0 00-.092.049.122.122 0 01-.076.042.109.109 0 00-.08.045c-.008.012-.026.025-.039.024a.938.938 0 01-.131-.033c-.024-.008-.042-.01-.057.013-.02.03-.044.027-.075.016-.067-.024-.136-.043-.204-.062-.01-.003-.023-.004-.03 0-.044.03-.084.008-.126-.005-.024-.007-.05-.007-.073-.013l-.144-.037c-.054-.013-.109-.025-.163-.04a.358.358 0 01-.073-.027.296.296 0 00-.187-.036.084.084 0 01-.027-.001l-.129-.029-.165-.034c-.01-.002-.02-.008-.028-.007-.073.011-.136-.025-.2-.046-.072-.022-.141-.008-.211-.01-.062-.003-.13 0-.182-.025-.056-.026-.114-.033-.17-.045-.043-.009-.089 0-.133-.002-.061-.004-.122-.012-.182-.017a3.847 3.847 0 00-.163-.008l-.243-.009a7.832 7.832 0 00-.233 0c-.132.003-.264.005-.395.01-.107.003-.215.01-.322.015l-.25.01a17 17 0 00-.342.017.227.227 0 00-.065.012.31.31 0 01-.171.015c-.018-.004-.038.005-.058.006l-.24.017-.066.008c-.078.006-.155.01-.233.018-.048.005-.095.014-.143.02-.029.005-.057.011-.086.013-.126.009-.255.006-.378.03-.099.019-.196.014-.295.022-.122.012-.243.032-.365.047-.033.004-.068-.003-.1.004-.098.02-.193.046-.29.065-.125.025-.251.047-.377.07-.005 0-.013-.001-.016.002-.07.068-.17.036-.248.076-.078.04-.158.074-.24.104-.087.032-.178.057-.267.084l-.399.12c-.015.005-.029.01-.044.012a.174.174 0 00-.102.05c-.023.024-.057.037-.086.055-.039.025-.085.043-.116.076-.083.093-.183.093-.292.072-.05-.01-.103-.014-.154-.025a.816.816 0 00-.24-.025c-.003 0-.009 0-.01-.003-.035-.03-.069-.063-.104-.094-.028-.024-.06-.047-.09-.07-.002-.002-.008-.003-.012-.002-.06.026-.082-.036-.12-.058a.823.823 0 01-.114-.081c-.036-.03-.068-.065-.102-.096-.06-.055-.122-.11-.185-.163-.015-.012-.042-.01-.062-.018a.325.325 0 01-.074-.038c-.025-.019-.044-.046-.068-.066-.06-.05-.121-.096-.182-.143-.007-.005-.015-.011-.017-.019-.02-.05-.062-.073-.108-.09-.056-.02-.101-.07-.169-.06-.008 0-.027-.018-.027-.027 0-.013.01-.031.02-.038.029-.016.062-.025.09-.04.043-.02.085-.045.127-.068.005-.003.01-.008.014-.008.055-.006.11-.013.165-.017a.1.1 0 01.046.014c.037.018.07.027.105-.007.009-.008.027-.01.04-.008.033.004.065.011.097.017.032.006.065.011.097.015.01.001.02-.002.029-.001.025.002.052 0 .075.009.03.01.052.026.085.005.025-.015.052-.009.08.01.021.016.054.014.082.02.016.005.039.006.049.017.022.024.045.029.074.027l.347-.017c.004 0 .01 0 .012-.002.055-.046.123-.015.183-.03.01-.003.023.005.035.008.016.003.034.009.049.005.062-.012.123-.029.185-.043.009-.003.019-.006.028-.006.112.008.219-.026.327-.046.078-.014.157-.02.235-.03l.241-.036a.829.829 0 01.084-.006c.061-.003.122-.007.184-.008.027-.001.055.007.082.007.02-.001.04-.009.06-.013v-.017zM204.162 10.345c-.053-.006-.08.003-.098.052-.01.027-.063.038-.097.056-.027.016-.056.03-.08.048a.413.413 0 00-.075.066c-.024.029-.041.063-.063.092-.01.013-.029.032-.037.03-.065-.022-.098.02-.13.062-.027.033-.054.065-.078.099a.065.065 0 01-.077.026c-.067-.023-.12.01-.166.044a.166.166 0 01-.102.035c-.014 0-.033.013-.04.025-.03.051-.053.056-.111.055a.464.464 0 00-.171.024.833.833 0 01-.346.057c-.032-.002-.065.009-.097.015-.03.006-.06.01-.09.018a.324.324 0 00-.07.03c-.048.027-.104.038-.136-.025a.064.064 0 00-.047-.028c-.048 0-.096.009-.143.013-.02.002-.047.01-.058 0-.043-.036-.08-.019-.118.004-.02.013-.042.026-.058.002-.015-.023-.003-.046.022-.061.012-.008.02-.02.03-.032-.055-.035-.048-.068.013-.11.039-.026.072-.062.11-.09.081-.063.128-.152.186-.233a1.45 1.45 0 00.116-.19c.05-.097.093-.197.136-.298.033-.078.055-.163.093-.239.034-.067.027-.135.021-.2-.003-.035-.042-.066-.065-.099-.001-.002-.006-.002-.007-.003-.034-.066-.094-.04-.146-.044-.028-.002-.055-.015-.083-.02a1.755 1.755 0 00-.11-.012c-.008 0-.017.005-.023.003-.142-.04-.285.002-.426-.003a.05.05 0 00-.024.008c-.04.023-.079.027-.119 0a.033.033 0 00-.023-.004c-.044.014-.088.028-.13.045-.035.013-.067.029-.1-.005-.009-.008-.028-.01-.042-.01a.808.808 0 00-.083.008l-.106.015c-.01.001-.018.008-.027.008-.06.007-.122.012-.182.02-.035.004-.07.012-.105.019l-.02.005c-.073.006-.147.01-.22.018-.048.006-.096.019-.146.026-.044.007-.09.01-.135.016-.013.002-.025.01-.038.014-.025.007-.05.02-.074.018-.079-.01-.155-.02-.227.026a.069.069 0 01-.04.009c-.068-.01-.128.017-.19.036a.136.136 0 00-.099.133c.002.108-.02.211-.048.316-.015.057-.004.123 0 .185s.014.124.022.186a25.88 25.88 0 01.025.258c0 .112-.002.224.001.336 0 .045.012.09.018.135.003.015.006.03.006.045-.002.096-.008.192-.008.288 0 .122.005.244.008.366 0 .029-.002.057 0 .085.009.118-.018.229-.047.341-.012.047-.002.098-.03.142l-.061.104c-.031.048-.08.039-.125.033-.066-.009-.13-.021-.197-.03-.014-.002-.029.005-.044.007-.055.01-.102-.019-.152-.032-.1-.028-.121-.1-.116-.188.006-.078.014-.156.016-.234.001-.037-.013-.074-.015-.111-.003-.057 0-.113 0-.17-.001-.053.005-.106-.022-.155a.051.051 0 01-.004-.034c.014-.064.003-.129.021-.195.024-.086.023-.18.028-.269a1.63 1.63 0 00.001-.19c-.006-.097-.016-.192-.024-.289-.002-.017 0-.036 0-.054-.001-.072.005-.143-.024-.211-.004-.01-.002-.023-.002-.034 0-.052.006-.104-.023-.151-.005-.01-.002-.022-.002-.034-.005-.057.001-.113-.014-.172-.018-.066-.016-.138-.02-.208-.002-.06-.015-.073-.074-.074-.038 0-.074 0-.107.025a.08.08 0 01-.06.008c-.094-.024-.179.007-.266.03-.03.007-.063.007-.094.014-.054.014-.106.03-.16.047-.061.018-.122.039-.184.053-.058.014-.117.02-.175.03l-.094.014c-.011.001-.024-.002-.033.003-.079.044-.169.036-.252.055-.125.031-.252.055-.377.089-.06.016-.116.05-.177.07-.08.026-.164.046-.244.072-.037.012-.07.032-.104.05-.07.04-.138.076-.224.035-.061-.03-.118-.005-.128.082-.005.049-.033.095-.052.143-.008.018-.023.034-.03.053-.019.06-.032.122-.052.181-.019.052-.043.103-.067.153-.043.092-.09.184-.132.277-.03.064-.053.13-.097.19-.035.046-.048.107-.074.161-.02.044-.044.086-.066.128l-.084.156c-.011.019-.027.034-.038.053a.21.21 0 00-.02.048c-.004.008.001.02-.002.029-.036.086-.056.18-.122.25-.01.01-.037.01-.055.008-.03-.004-.058-.02-.087-.023a.351.351 0 01-.19-.074.028.028 0 00-.012-.005c-.074-.01-.097-.063-.105-.128-.002-.015-.02-.03-.035-.04l-.12-.084c-.017-.011-.032-.023-.05-.031-.074-.033-.098-.089-.093-.169.005-.09-.003-.181-.008-.273-.002-.035-.004-.078-.024-.102-.033-.04-.027-.08-.032-.124-.004-.035-.017-.068-.024-.103-.01-.044.02-.075.04-.11l.053-.091c.037-.06.076-.119.114-.179.026-.04.056-.08.078-.124.017-.03.023-.067.037-.1.005-.014.016-.032.03-.038.058-.024.082-.074.102-.128.024-.07.05-.138.068-.21a2.24 2.24 0 00.05-.239c.01-.07.013-.14.017-.212.001-.018 0-.041-.012-.052-.04-.039-.035-.09-.045-.139-.002-.011.006-.024.005-.036a.127.127 0 00-.016-.052c-.045-.068-.093-.134-.139-.201-.002-.004-.004-.012-.002-.016.013-.034.026-.068.004-.104-.002-.002.009-.016.015-.018.07-.015.14-.037.21-.041a.345.345 0 01.207.062c.054.036.108.07.16.11.042.032.077.073.12.101a.545.545 0 00.13.062.178.178 0 01.088.056c.008.01.023.014.034.022.01.007.024.012.03.022.014.029.024.06.065.056l.092-.011c.017-.002.034 0 .051-.001l.074-.004h.062c.017 0 .033.007.05.005.035-.004.07-.011.105-.017l.285-.045c.072-.011.145-.02.217-.032.087-.013.174-.028.26-.043.007 0 .013-.006.02-.007.141-.017.282-.032.423-.052.094-.013.186-.034.28-.05l.226-.034c.051-.008.102-.02.154-.03l.081-.012.226-.044c.024-.005.048-.012.073-.015.054-.007.11-.01.164-.018.03-.004.043-.02.046-.05.002-.028.014-.054.015-.08a.779.779 0 00-.005-.11c-.003-.026-.013-.052-.019-.08a1.15 1.15 0 01-.016-.088c-.003-.019 0-.038-.003-.056-.003-.026-.009-.05-.013-.076-.006-.035-.01-.07-.02-.105-.006-.026-.017-.05-.027-.075l-.014-.038c-.016-.057-.038-.111-.1-.127a.246.246 0 00-.151.006c-.054.02-.113.023-.169.038-.139.039-.277.079-.415.122-.043.014-.08.042-.121.063-.072.038-.152.038-.228.054-.048.01-.09.028-.138.003a.788.788 0 00-.078-.035.073.073 0 00-.033-.004.477.477 0 01-.263-.065c-.08-.043-.16-.084-.239-.13-.078-.045-.129-.122-.196-.179-.096-.081-.154-.199-.267-.263-.032-.019-.046-.067-.068-.102-.041-.064-.096-.107-.175-.108h-.092a.162.162 0 01-.051-.016c-.01-.005-.022-.018-.02-.026.002-.01.013-.028.023-.03a.913.913 0 01.13-.018c.057-.003.068-.012.073-.067.002-.012.016-.032.027-.033.05-.006.1-.008.15-.011.013 0 .026-.003.038-.002.035.002.071.001.105.01.087.02.172.045.259.068.006.001.014-.002.02-.005.06-.031.115-.01.175.004.043.01.097.012.138-.003.072-.027.138-.037.208 0 .013.008.035.006.048 0 .029-.013.054-.008.078.005.024.013.043.01.065-.009.011-.01.033-.018.048-.015.099.023.196-.008.295-.009.064 0 .128-.004.192-.01.054-.006.107-.016.16-.025l.252-.042c.106-.018.213-.032.318-.052.093-.018.184-.044.276-.065.045-.01.09-.02.134-.025a1.9 1.9 0 00.24-.05c.075-.02.157-.017.237-.024.004 0 .007-.002.011-.003.092-.016.182-.033.273-.047.084-.012.168-.018.251-.032.085-.014.17-.024.251-.058.053-.022.103-.062.168-.053.011.002.031-.01.037-.02.04-.067.062-.056.13-.01.028.018.042.019.071 0 .036-.022.074-.054.125-.038.01.004.032-.005.038-.015.02-.033.05-.044.085-.042.034.001.063-.006.08-.04a.05.05 0 01.029-.023c.053-.014.106-.026.16-.039.008-.002.017 0 .024-.003.052-.03.097-.01.144.015.068.034.14.063.212.09.061.024.124.044.187.065a.23.23 0 00.048.011c.043.006.078.029.115.052.047.03.099.054.148.082a.05.05 0 01.021.017c.03.054.058.108.086.161 0 .003 0 .007.003.008.062.04.076.113.113.171.01.017.008.043.01.065.004.036.007.072.008.109 0 .054-.006.06-.06.06-.026 0-.05-.001-.069.027-.018.028-.046.016-.068-.003-.024-.021-.048-.044-.073-.064-.027-.022-.054-.014-.067.018-.008.02-.012.045-.027.057-.019.016-.046.033-.068.031-.09-.004-.18-.017-.269-.024-.031-.003-.063-.002-.094-.002l-.046.003c-.208.008-.416.012-.623.027-.105.007-.21.032-.314.048a.238.238 0 01-.076 0 .302.302 0 00-.164.02c-.004.002-.008.006-.012.005-.08-.003-.16.015-.239.024-.09.01-.178.022-.264.047-.087.025-.176.044-.265.066-.093.022-.187.045-.28.069-.011.003-.03.02-.03.028.004.018.014.04.028.05.078.056.159.105.235.162.026.019.042.051.062.077.045.057.091.11.133.168.025.035.052.072.06.112.016.08.065.14.097.21.015.03.02.055.007.086-.016.037-.008.049.03.05.012 0 .025.003.033-.003.051-.034.109-.018.163-.023.065-.006.13-.015.194-.023l.251-.027c.043-.006.084-.013.127-.018l.053-.008c.101-.009.202-.014.302-.027.077-.01.151-.03.227-.042a.643.643 0 01.1-.007c.073-.001.144.002.215-.022.04-.014.088-.009.133-.012.01-.001.02 0 .028-.005.077-.051.148-.107.17-.205.002-.01.008-.022.016-.026.031-.013.063-.027.096-.034a.15.15 0 01.08 0c.067.03.138.015.207.024.01.002.024-.003.033.001.094.04.202.04.292.096.025.016.061.015.09.026.039.014.075.037.114.046.046.011.088.023.112.069.003.006.012.014.018.015.117.022.2.109.3.16.055.028.112.052.167.08.04.021.075.05.116.07.057.028.119.05.176.077.04.02.08.045.115.074.047.04.097.068.157.087.037.012.065.051.098.078.041.031.081.065.124.093.08.054.161.1.208.194.033.068.012.122-.001.184-.006.027-.007.056-.01.084-.006.034-.006.071-.02.1-.02.042-.02.076.003.113.011.016.02.035.033.063M196.295 13.546c.057.004.114.006.17.013.029.004.055.023.083.023.055.002.111-.005.167-.007l.055.003c.02.002.04.01.057.004.041-.01.072.003.109.02.038.015.09.001.134-.006.037-.007.072-.02.108 0 .005.004.013.006.016.004.056-.033.112-.008.166.003.08.015.155-.001.232-.01.036-.006.074-.004.112-.01.058-.008.116-.02.174-.028.103-.016.207-.031.31-.048.02-.003.039-.015.06-.019.028-.004.058-.005.087-.008.008 0 .016 0 .024-.002l.144-.021c.007-.001.015 0 .02-.003.059-.04.125-.029.19-.032.027-.001.051-.012.078-.015.04-.004.081-.004.122-.01l.32-.042c.092-.012.185-.021.277-.034.085-.012.168-.029.252-.044.056-.01.111-.031.166-.029.07.002.125-.033.187-.051.013-.004.025-.01.04-.012a.209.209 0 00.121-.068c.046-.048.118-.07.179-.1.014-.008.032-.01.045-.019.042-.03.09-.039.138-.032.026.004.05.017.076.025.018.006.038.019.054.015.045-.012.077.013.116.025.056.019.1.077.17.054.004-.002.014.001.018.006.046.053.117.05.174.08.037.019.076.031.096.075.004.01.023.018.036.022.073.02.131.06.17.124.05.076.093.156.142.233.012.019.034.033.054.047.014.01.033.013.049.022.027.014.044.034.026.067-.014.026-.046.03-.075.016a.311.311 0 00-.077-.026c-.035-.006-.061.014-.074.044-.015.034-.043.045-.073.056-.025.01-.053.016-.072.034-.053.047-.118.043-.18.05a3.38 3.38 0 01-.203.018.117.117 0 01-.049-.008.226.226 0 00-.161-.004c-.033.011-.072.002-.11 0-.018 0-.038-.004-.056-.002-.039.003-.077.01-.115.014l-.153.017-.287.034-.425.049a.602.602 0 01-.033.002c-.155.009-.311.013-.467.027-.093.008-.184.033-.276.047-.039.006-.079-.001-.118.003-.042.005-.083.017-.124.025-.052.009-.104.026-.155.023-.088-.004-.171.02-.253.04-.086.02-.172.023-.257.04-.024.005-.046.025-.07.034-.133.054-.266.105-.399.16-.027.01-.05.03-.076.046-.042.025-.08-.002-.12-.006-.013-.001-.025-.008-.037-.006-.103.01-.197-.026-.293-.053a.596.596 0 01-.158-.067c-.043-.028-.074-.075-.112-.11-.055-.05-.114-.096-.169-.147-.055-.051-.105-.107-.16-.158-.043-.04-.09-.073-.135-.108-.011-.01-.026-.015-.037-.024-.048-.036-.094-.074-.143-.107-.015-.01-.038-.008-.055-.016-.015-.007-.03-.02-.044-.03.012-.011.022-.029.036-.033.033-.011.067-.015.072-.061 0-.01.027-.022.042-.023.042-.003.084 0 .127 0v-.005" fill="#FFFFFE"/><path d="M199.678 10.17c.017.01.039.015.05.028.03.033.07.041.104.028.058-.025.104.007.155.015.042.007.086.002.13.002.012 0 .03-.005.037.002.041.045.1.042.152.057.079.024.16.037.24.057.098.023.196.046.292.076.048.015.092.047.14.068a.665.665 0 01.255.182c.044.054.078.116.117.175.004.006.008.014.006.02-.024.058.012.107.022.16.008.048.01.093-.034.127a.076.076 0 00-.022.029c-.016.04-.035.077-.077.097-.01.005-.017.022-.023.034a.134.134 0 01-.11.077.136.136 0 00-.065.02c-.046.032-.131.03-.171-.011l-.118-.118c-.03-.03-.058-.061-.089-.09a.118.118 0 00-.047-.023c-.077-.024-.119-.088-.168-.143-.01-.01-.015-.025-.026-.032-.083-.05-.169-.096-.25-.15-.035-.021-.06-.056-.09-.085-.053-.05-.106-.098-.157-.15-.07-.069-.136-.142-.205-.212-.04-.04-.083-.079-.123-.12a.044.044 0 01-.014-.031c.002-.043.043-.082.089-.088M197.86 12.426c-.003.015-.003.03-.01.044-.04.075-.063.156-.126.223-.062.067-.143.097-.215.143-.01.006-.023.005-.035.007-.031.006-.062.01-.093.017-.033.006-.063.002-.087-.024-.024-.028-.047-.058-.074-.082-.086-.078-.176-.15-.26-.23a1.87 1.87 0 01-.187-.207c-.032-.04-.072-.058-.112-.081a1.88 1.88 0 01-.302-.22c-.049-.043-.105-.077-.156-.117-.034-.027-.065-.06-.098-.089-.03-.027-.063-.05-.091-.078-.012-.013-.024-.043-.018-.05a.073.073 0 01.054-.023c.06.006.12.018.18.026.02.002.041-.006.062-.006.023 0 .047.002.07.004.034.003.068.012.101.01.094-.005.186.012.277.031.098.02.198.032.296.057.088.022.181.027.264.072.065.035.133.067.198.101.054.028.107.057.158.088.018.011.03.03.046.048.019.021.043.04.054.065.04.087.077.177.114.266l-.01.005M201.407 12.221c0 .023-.002.046 0 .068a.1.1 0 01-.037.088c-.05.046-.094.1-.15.138-.039.027-.093.036-.142.048-.037.01-.077.008-.114.02-.055.015-.089-.015-.12-.05-.06-.066-.111-.145-.182-.194-.077-.053-.134-.135-.231-.16-.025-.006-.044-.036-.062-.058-.066-.078-.118-.168-.2-.234-.051-.042-.093-.095-.142-.14-.052-.049-.107-.094-.16-.141-.049-.042-.098-.083-.145-.126-.007-.006-.008-.019-.012-.029.01-.004.023-.013.029-.01.037.017.058-.007.077-.03.032-.04.112-.024.163.008.04.024.064.021.1-.006.044-.035.096-.034.146.004.085.065.18.08.283.078.007 0 .013.001.02.003.11.038.221.072.33.113.08.03.158.066.235.104.063.031.121.07.183.104.049.027.077.066.082.125.003.036.017.07.024.105l.035.17-.01.002M197.497 11.731c-.039.012-.063-.007-.089-.033-.08-.08-.16-.161-.245-.237-.03-.026-.073-.037-.107-.06-.044-.029-.085-.063-.127-.096-.004-.003-.005-.012-.009-.013-.07-.023-.096-.094-.15-.136-.115-.086-.224-.18-.338-.269-.04-.031-.086-.057-.13-.086a.318.318 0 01-.016-.013l-.186-.162c-.01-.008-.015-.023-.023-.034.014-.008.027-.022.041-.023.025-.003.05.004.074.006l.08.01c.014.002.03.003.04.01.06.035.12.026.183.006.037-.012.081.003.121.007.015.001.03.007.045.01l.29.043c.015.002.03.007.044.007.06 0 .117.001.174.032.04.022.092.023.138.038.05.017.1.036.149.059.072.034.15.056.21.114.006.005.013.01.018.017.062.094.129.184.184.282.03.051.047.112.057.172.016.087-.036.143-.108.182a.223.223 0 00-.046.035c-.03.027-.054.056-.1.062-.031.005-.059.035-.09.05-.025.013-.055.02-.082.03l-.002-.01" fill="#FFFFFE"/></g></svg>
