<svg xmlns="http://www.w3.org/2000/svg" xmlns:xlink="http://www.w3.org/1999/xlink" viewBox="0 0 180 65"><defs><path id="a" d="M.02.01h20.815v29.895H.02z"/><path id="c" d="M.005.26h21.038v31.223H.005z"/></defs><g fill="none" fill-rule="evenodd"><g><path fill="#000203" d="M.977 29.905H16.46l4.374-4.393v-9.155l-4.374-4.393H7.529l-1.18-1.185V6.795l1.18-1.206h11.72V.01H4.353L0 4.404v8.766l4.354 4.373h8.933l1.2 1.205v4.373l-1.2 1.206H.977v5.578"/></g><path fill="#000203" d="M24.463 29.905h19.249v-5.578h-12.9v-7.173h11.496v-5.578H30.81V5.589h12.697V.01H24.463v29.895M51.056 29.905h13.877v-5.578H54.23l-1.2-1.206V6.795l1.2-1.206h10.703V.01H51.056l-4.374 4.394v21.108l4.374 4.393M74.7 13.17V5.589h6.94l1.18 1.206v5.169l-1.18 1.206H74.7zm-6.347 16.735H74.7V18.748h3.357l4.965 4.986v6.171h6.165v-7.969l-3.581-3.597v-.387l3.581-3.597V4.404L84.814.01H68.353v29.895zM93.072 29.905h19.25v-5.578H99.42v-7.173h11.496v-5.578H99.421V5.589h12.696V.01H93.072v29.895M120.907 29.905h6.348V5.59h7.142V.01h-20.632V5.59h7.142v24.316M7.76 62.653h4.965l3.764-3.78h.407l3.764 3.78h4.965l6.756-6.784v-23.11h-6.349V54.09l-2.788 2.78h-.386l-3.378-3.393V39.93h-5.554v13.548l-3.378 3.392h-.407l-2.767-2.78V32.759H1.025v23.11l6.735 6.785M36.735 62.653h19.249v-5.579h-12.9v-7.172h11.495v-5.579H43.084v-5.987H55.78v-5.578H36.735v29.895M65.099 48.513V42.73l4.17-4.19h.408l4.15 4.19v5.783H65.1zm-6.349 14.14H65.1V54.09h8.728v8.562h6.369V40.93l-8.139-8.173H66.89l-8.139 8.173v21.722zM90.429 46.51v-8.174h6.938l1.18 1.206v5.783l-1.18 1.185H90.43zM84.08 62.653h6.349V52.089h10.113l4.374-4.374V37.151l-4.374-4.393H84.08v29.895zM114.895 57.279l-1.2-1.206V39.338l1.2-1.206h6.348l1.18 1.206v16.735l-1.18 1.206h-6.348zm-3.174 5.578h12.697l4.354-4.393V36.947l-4.354-4.393H111.72l-4.375 4.393v21.517l4.375 4.393zM132.892 62.653h6.348V45.325h.387l8.526 8.562v8.766h6.368V32.758h-6.368v12.75h-.387l-8.526-8.561v-4.189h-6.348v29.895"/><g transform="translate(157.863 32.497)"><path fill="#000203" d="M.982 30.155h15.484l4.375-4.393v-9.154l-4.375-4.394H7.534l-1.18-1.185V7.045l1.18-1.206h11.72V.26H4.358L.005 4.654v8.766l4.354 4.373h8.933l1.2 1.206v4.372l-1.2 1.206H.982v5.578M19.677 29.49a.734.734 0 00-.253-.034h-.106v.485h.17c.102 0 .182-.02.239-.062.056-.04.085-.106.085-.198 0-.091-.045-.155-.135-.19zm-.794 1.343v-1.672a157.593 157.593 0 01.807.004c.131.01.241.039.328.086.148.082.222.215.222.4 0 .14-.04.241-.117.304a.545.545 0 01-.288.112.565.565 0 01.236.097c.098.08.147.204.147.375v.15a.345.345 0 00.015.097l.015.047h-.416a1.218 1.218 0 01-.027-.231.786.786 0 00-.027-.205.203.203 0 00-.123-.122.485.485 0 00-.149-.027l-.096-.006h-.092v.591h-.435zm-.225-1.713a1.21 1.21 0 00-.359.874c0 .35.122.646.366.89.241.245.534.367.876.367.34 0 .632-.123.874-.369.242-.247.363-.543.363-.888 0-.335-.12-.627-.36-.874a1.177 1.177 0 00-.877-.377c-.345 0-.64.126-.883.377zm1.935 1.957a1.458 1.458 0 01-1.052.426c-.423 0-.779-.146-1.068-.436a1.46 1.46 0 01-.435-1.073c0-.44.157-.807.47-1.1a1.47 1.47 0 011.033-.408c.414 0 .768.147 1.062.442.293.294.44.65.44 1.066 0 .429-.15.79-.45 1.083z"/></g></g></svg>
