<svg xmlns="http://www.w3.org/2000/svg" xmlns:xlink="http://www.w3.org/1999/xlink" viewBox="0 0 190 64"><defs><path id="a" d="M.018.134h93.208v63.865H.018z"/></defs><g fill="none" fill-rule="evenodd"><path fill="#000203" d="M127.97 7.362h-4.299L123.651 64h6.6l-.02-15.88 2.927 15.88h6.026l2.881-15.873.028 15.873h6.599l-.132-56.637H127.97M63.45 58.595l-.025-45.829h3.194l.024 45.83h-3.194zm9.765-45.193c0-4.758-1.381-6.04-6.507-6.04h-9.885L56.853 64h9.855c5.126 0 6.507-1.282 6.507-6.04v-.015l.03-.028-.03-44.47v-.044zM29.766 7.362l.01 21.142h-3.069l-.011-21.142h-6.6L20.126 64h6.6l-.016-30.035h3.07L29.796 64h6.6l-.031-56.637h-6.6M157.497 53.01l1.517-38.474 1.517 38.474h-3.034zM154.17 7.362L150.386 64h6.599l.258-5.529h3.542l.257 5.53h6.6l-3.785-56.638h-9.686zM44.886 53.01l1.517-38.474 1.518 38.474h-3.035zM41.56 7.362L37.776 64h6.599l.257-5.529h3.543l.257 5.53h6.6L51.246 7.361H41.56zM180.88 7.362l.795 39.96-3.704-39.96h-8.538L169.413 64h6.599l-.796-39.96 3.704 39.96V64h8.539l.02-56.638h-6.6M115.93 7.362L114.613 53.2 112.46 7.363h-7.362L102.862 53.2l-1.397-45.838h-6.671L97.71 64l9.423-.005 1.593-38.1 1.593 38.1 9.445.005 2.918-56.638h-6.754"/><g><path d="M83.197 58.595l.024-45.829h3.408l.025 45.83h-3.457zm10.03-45.193c0-4.758-1.382-6.04-6.507-6.04h-3.588c-5.126 0-6.507 1.282-6.507 6.04V57.96c0 4.758 1.38 6.04 6.507 6.04h3.588c5.125 0 6.506-1.282 6.506-6.04V13.402zM6.604 28.504l.009-22.966h3.408l.007 20.281 6.598-.006-.009-19.596v-.043c0-4.758-1.38-6.04-6.506-6.04H6.522C1.397.134.016 1.416.016 6.174v.043l-.014 27.74 10.03.007.013 24.631H6.588l.012-21.9H0l.016 21.249v.015c0 4.758 1.381 6.04 6.506 6.04h3.589c5.125 0 6.506-1.282 6.506-6.04v-.015l.01-29.44H6.604" fill="#000203"/></g><path fill="#C4C253" d="M136.33 28.925l-2.485 11.2 2.483 14.28 2.484-14.28-2.482-11.2M141.232 40.124l1.442-13.518-.597-.814-3.31-4.502-.806 4.214 1.765 14.583 7.003 14.34-5.497-14.303"/><path d="M128.52 12.62l1.324 12.44 3.337-7.048h2.379c-.373-.61-.622-1.555-.631-2.252-.014-1.134.616-1.655 1.399-1.655.785 0 1.414.52 1.4 1.655-.008.697-.26 1.642-.631 2.252h2.379l2.603 5.825.699 1.558 1.955-17.958.009-.081h-16.78l.008.08.55 5.183" fill="#C4C253"/><path fill="#C4C253" d="M132.93 40.087l1.74-14.583-.78-4.214-3.285 4.254-.647.835 1.466 13.745-5.496 14.303 7.003-14.34"/><path d="M188.814 8.22h.1c.117 0 .212-.04.212-.135 0-.084-.061-.14-.195-.14a.508.508 0 00-.117.012v.263zm-.005.52h-.212v-.918c.084-.016.2-.028.35-.028.173 0 .251.028.318.068.05.039.089.112.089.201 0 .1-.078.18-.19.213v.01c.09.034.14.102.167.225.028.14.045.195.067.229h-.228c-.028-.034-.044-.117-.072-.224-.017-.1-.073-.145-.19-.145h-.1v.369zm-.562-.481c0 .408.3.733.712.733.4 0 .695-.325.695-.727 0-.41-.295-.74-.7-.74-.407 0-.707.33-.707.734zm1.64 0a.92.92 0 01-.934.929.927.927 0 01-.94-.93c0-.508.417-.917.94-.917.529 0 .935.409.935.918z" fill="#000203"/></g></svg>
