<svg xmlns="http://www.w3.org/2000/svg" xmlns:xlink="http://www.w3.org/1999/xlink" viewBox="0 0 113 65"><defs><path id="a" d="M.015.019H54.03V54.43H.015z"/><path id="c" d="M.015.18h54.168v38.895H.015z"/></defs><g fill="none" fill-rule="evenodd"><g transform="translate(0 .98)"><path fill="#000B0F" d="M32.432.019v.013l-5.408 5.446L21.604.02H.004v21.753h.014l5.414 5.453-5.413 5.451v.001H.004v21.754h21.6l5.42-5.46 5.407 5.445h.001v.015h21.6V32.677l-5.415-5.452 5.414-5.453V.019H32.432"/></g><path d="M111.843 28.242c0 15.487-12.465 28.041-27.843 28.041-15.377 0-27.843-12.554-27.843-28.041S68.623.2 84 .2c15.378 0 27.843 12.555 27.843 28.042" fill="#000B0F"/><g transform="translate(0 24.766)"><path fill="#D8232A" d="M54.183.18l-3.238 3.26 3.238 3.26V.18"/><path d="M6.065 37.39c0-.866.035-2.207.096-2.993h-.035c-.28 1.218-.526 2.7-1 4.678H3.095c-.377-2.012-.526-3.39-.789-4.713h-.027c.027.723.114 1.95.114 3.027v1.686H0v-6.214h3.812c.079.477.333 2.048.491 3.345h.018c.201-1.235.5-2.692.64-3.345h3.768v6.214H6.065V37.39" fill="#000B0F"/></g><path d="M20.99 62.959l-.22.882h-2.629l2.121-6.214h3.55l2.313 6.214h-2.874l-.237-.882H20.99zm1.525-1.677a45.204 45.204 0 00-.5-1.96h-.07c-.123.582-.333 1.395-.473 1.96h1.043zM35.655 63.841v-6.214h3.085a170.56 170.56 0 011.507 3.143h.062c-.044-.521-.053-1.501-.053-2.534v-.609h2.384v6.214h-2.945c-.43-.874-1.28-2.807-1.674-3.654h-.052c.07.618.078 1.333.078 2.763v.891h-2.392M60.188 60.734c0 1.827-1.183 3.266-3.873 3.266-2.428 0-3.743-1.412-3.743-3.257 0-1.72 1.06-3.274 3.857-3.274 2.287 0 3.76 1.368 3.76 3.265m-4.777-.044c0 .97.21 1.668.999 1.668.771 0 .938-.697.938-1.615 0-1.112-.201-1.703-.982-1.703-.701 0-.955.591-.955 1.65M71.076 63.841l-1.604-6.214h2.796c.158 1.289.29 2.569.456 3.946h.035c.263-1.377.482-2.648.736-3.946h2.261c.272 1.272.412 2.172.736 3.902h.036c.175-1.589.341-2.834.464-3.902h2.612l-1.71 6.214h-2.716c-.254-1.2-.377-2.012-.692-3.548h-.036c-.227 1.165-.438 2.357-.666 3.548h-2.708M91.221 62.959l-.22.882h-2.628l2.12-6.214h3.55l2.314 6.214h-2.875l-.236-.882H91.22zm1.525-1.677a44.167 44.167 0 00-.5-1.96h-.07c-.122.582-.333 1.395-.473 1.96h1.043zM107.746 61.644v2.197h-2.62v-6.214h4.25c1.674 0 2.463.795 2.463 1.766 0 .776-.42 1.288-1.07 1.527.544.23.895.653.895 1.58v.37c0 .239.018.662.096.971h-2.585c-.096-.238-.132-.688-.132-1.244v-.221c0-.6-.148-.732-.77-.732h-.527zm0-1.422h.772c.307 0 .657-.114.657-.511 0-.345-.263-.521-.675-.521h-.754v1.032zM111.318 57.676h.158v-.186h.066c.048 0 .07.018.077.064.008.05.008.113.022.122h.155v-.012c-.02-.011-.013-.075-.025-.14-.01-.045-.03-.075-.077-.09v-.004a.127.127 0 00.09-.126c0-.104-.094-.157-.203-.157h-.263v.529zm.158-.296v-.111h.08c.05 0 .07.018.07.055 0 .038-.022.056-.07.056h-.08zm.063.455c-.232 0-.405-.178-.405-.42 0-.239.173-.417.405-.417.232 0 .403.178.403.417 0 .242-.171.42-.403.42zm0 .08c.28 0 .5-.212.5-.5a.49.49 0 00-.5-.5c-.28 0-.5.213-.5.5 0 .288.22.5.5.5z" fill="#000B0F"/></g></svg>
