<svg xmlns="http://www.w3.org/2000/svg" xmlns:xlink="http://www.w3.org/1999/xlink" viewBox="0 0 308 36"><defs><path id="a" d="M0 0h307v35H0z"/></defs><g transform="translate(.903 .778)" fill="none" fill-rule="evenodd"><path d="M7.895 7.41v6.87c0 .118.074.177.225.177h12.785c.24 0 .441.08.605.243.165.16.248.36.248.594v4.411c0 .56-.285.838-.853.838H8.12c-.15 0-.225.074-.225.22v6.827c0 .147.074.22.225.22h15.028c.24 0 .441.081.605.243.164.162.247.361.247.595v5.513a.801.801 0 01-.247.596.827.827 0 01-.605.243h-17.9a5.304 5.304 0 01-2.04-.397A5.195 5.195 0 011.524 33.5a5.079 5.079 0 01-1.122-1.655A5.073 5.073 0 010 29.84V5.16c0-.706.135-1.374.403-2.007a4.851 4.851 0 011.122-1.631A5.718 5.718 0 013.207.419 5.064 5.064 0 015.25 0h17.9c.238 0 .44.081.604.242A.806.806 0 0124 .837v5.558a.736.736 0 01-.247.574.87.87 0 01-.605.22H8.12c-.15 0-.225.074-.225.22M41.037 7.718a.74.74 0 00-.243.573v18.416c0 .237.081.427.243.573a.854.854 0 00.598.222H55.16c.236 0 .436.08.598.242.162.163.243.36.243.596v5.821a.809.809 0 01-.243.596.813.813 0 01-.598.243H38.181a5.17 5.17 0 01-2.014-.397 5.069 5.069 0 01-2.768-2.757A5.116 5.116 0 0133 29.84V5.16c0-.706.133-1.374.399-2.007a4.84 4.84 0 011.107-1.631 5.627 5.627 0 011.66-1.103A4.937 4.937 0 0138.182 0h16.978c.236 0 .436.081.598.242A.814.814 0 0156 .837V6.66a.81.81 0 01-.243.595.812.812 0 01-.598.243H41.635a.861.861 0 00-.598.22M89.16 0c.235 0 .434.081.597.242A.816.816 0 0190 .837v33.324a.81.81 0 01-.243.596.813.813 0 01-.597.243h-6.146a.81.81 0 01-.597-.243.804.804 0 01-.244-.596V21.91a.776.776 0 00-.22-.573.78.78 0 00-.575-.22h-8.756a.855.855 0 00-.597.22.737.737 0 00-.243.573v12.251c0 .559-.28.839-.84.839H64.84c-.56 0-.84-.28-.84-.839V.837c0-.558.28-.837.84-.837h6.102c.56 0 .84.28.84.837v11.944c0 .558.28.837.84.837h8.756c.235 0 .426-.08.574-.242a.85.85 0 00.221-.595V.837c0-.234.08-.433.244-.595A.815.815 0 0183.014 0h6.146M107.783 27.502h10.39V7.498h-10.39v20.004zM120.827 0c.707 0 1.377.14 2.012.419a5.36 5.36 0 011.636 1.103c.456.456.825 1 1.105 1.631A4.9 4.9 0 01126 5.16v24.68c0 .706-.14 1.374-.42 2.006a5.606 5.606 0 01-1.105 1.655 4.886 4.886 0 01-1.636 1.102 5.169 5.169 0 01-2.012.397h-15.654a5.166 5.166 0 01-2.012-.397 5.124 5.124 0 01-1.658-1.102 5.08 5.08 0 01-1.105-1.655A5.123 5.123 0 01100 29.84V5.16c0-.706.133-1.374.398-2.007a4.851 4.851 0 011.105-1.631 5.64 5.64 0 011.658-1.103A4.933 4.933 0 01105.173 0h15.654zM162.496 18.812h10.628V7.19h-10.628v11.623zm19.402 15.481c.118.207.134.376.046.508-.09.132-.25.199-.486.199h-7.012c-.235 0-.47-.067-.705-.2a1.342 1.342 0 01-.529-.507l-4.674-8.379c-.06-.118-.162-.176-.309-.176h-5.248c-.146 0-.22.074-.22.22v8.203c0 .559-.28.839-.838.839h-6.085c-.56 0-.838-.28-.838-.839V.837c0-.558.278-.837.838-.837h19.931c.706 0 1.374.14 2.007.419.632.279 1.176.647 1.632 1.103.455.456.822 1 1.102 1.631.279.633.419 1.301.419 2.007v15.726a4.968 4.968 0 01-.993 3.021c-.66.897-1.506 1.507-2.535 1.831l-.132.044c-.206.06-.25.147-.132.265l.043.088 4.718 8.158zM197.896 9.473v4.807c0 .118.074.177.223.177h12.786c.24 0 .441.08.606.243.164.16.247.36.247.594v4.411c0 .56-.285.838-.853.838H198.12c-.15 0-.223.074-.223.22v6.827c0 .147.074.22.223.22h15.03c.238 0 .44.081.605.243.163.162.246.361.246.595v5.513a.804.804 0 01-.246.596.83.83 0 01-.605.243h-17.901a5.31 5.31 0 01-3.723-1.5 5.079 5.079 0 01-1.122-1.654A5.058 5.058 0 01190 29.84V5.16c0-.706.134-1.374.403-2.007a4.851 4.851 0 011.122-1.631 5.714 5.714 0 011.682-1.103 5.07 5.07 0 012.04-.419h17.902a.835.835 0 01.851.837v5.558a.738.738 0 01-.246.574.873.873 0 01-.605.22h-15.03c-.15 0-.223 2.137-.223 2.284M230.627 18.946h8.746V7.013h-8.746v11.933zM241.752 0c.717 0 1.397.14 2.04.419.643.279 1.196.647 1.66 1.103.464.456.836 1 1.12 1.631.285.633.428 1.301.428 2.007v15.815a4.82 4.82 0 01-.428 2.005 5.298 5.298 0 01-1.12 1.633 5.4 5.4 0 01-1.66 1.102 5.05 5.05 0 01-2.04.42h-10.004a.873.873 0 00-.605.22.73.73 0 00-.249.573v7.233c0 .559-.284.839-.851.839h-6.19c-.569 0-.853-.28-.853-.839V.837c0-.558.284-.837.852-.837h17.9zM275.193 27.502a.76.76 0 01.583.242c.149.163.224.36.224.596v5.821a.847.847 0 01-.224.596.757.757 0 01-.583.243H255.85c-.567 0-.85-.28-.85-.839V.837c0-.558.283-.837.85-.837h6.179c.566 0 .852.28.852.837v25.87c0 .237.08.427.246.573a.867.867 0 00.604.222h11.462M306.755.242a.81.81 0 01.245.595v17.81c0 .705-.14 1.374-.422 2.006a5.313 5.313 0 01-1.113 1.632 5.347 5.347 0 01-1.645 1.102c-.639.28-1.313.42-2.024.42h-3.382V34.16a.807.807 0 01-.243.596.82.82 0 01-.602.243h-6.182a.744.744 0 01-.578-.243.843.843 0 01-.223-.596V23.807h-3.38c-.712 0-1.387-.14-2.026-.42a5.62 5.62 0 01-1.667-1.102 4.809 4.809 0 01-1.111-1.632 5.104 5.104 0 01-.402-2.006V.837c0-.558.282-.837.845-.837h5.872c.237 0 .438.081.601.242a.81.81 0 01.244.595v15.207a.84.84 0 00.223.595.747.747 0 00.578.243h8.23c.563 0 .844-.279.844-.838V.837c0-.558.282-.837.846-.837h5.872c.237 0 .437.081.6.242" fill="#0A081D" /></g></svg>
