<svg viewBox="0 0 64 11" xmlns="http://www.w3.org/2000/svg"><g fill="#FFF" fill-rule="evenodd"><path d="M9.734 3.267h1.282v3.352H9.734z"/><path d="M11.95 3.267h1.447L14.82 5.1V3.267h1.282v3.351h-1.407L13.232 4.8v1.82H11.95zM17.026 3.267h3.834v.854h-2.553v.392h2.11v.854h-2.11v1.251h-1.281z" fill-rule="nonzero"/><path d="M21.585 3.267h1.28v3.352h-1.28z"/><path d="M23.8 3.267h1.448L26.67 5.1V3.267h1.281v3.351h-1.407L25.082 4.8v1.82h-1.281z" fill-rule="nonzero"/><path d="M28.886 3.267h1.282v3.352h-1.282z"/><path d="M32.103 4.121h-1.276v-.854h3.849v.854h-1.292v2.497h-1.281zM35.32 3.267h3.793v.854h-2.512v.372h2.08v.854h-2.08v.417h2.668v.854h-3.95zM40.4 5.548c.07.528.392.749 1.086.749.638 0 .975-.206.975-.598 0-.201-.106-.337-.322-.417-.116-.04-.236-.066-.729-.14-.603-.091-.763-.131-.965-.232a.786.786 0 01-.457-.724c0-.613.558-1.015 1.407-1.015.88 0 1.357.337 1.442 1.025h-.467c-.085-.412-.412-.608-1-.608-.543 0-.88.216-.88.563 0 .196.111.322.352.407.151.05.257.076.794.156.458.065.75.136.91.206.266.126.417.377.417.709 0 .663-.573 1.085-1.472 1.085-1.01 0-1.523-.382-1.553-1.166h.462zM46.808 3.267v2.005c0 .492-.05.718-.206.93-.246.326-.719.512-1.302.512-.633 0-1.135-.221-1.357-.608-.105-.186-.145-.402-.145-.834V3.267h.457v2.035c0 .276.04.462.126.608.14.236.502.387.924.387.468 0 .83-.171.96-.457.06-.136.085-.302.085-.538V3.267h.458zM49.21 4.89c.262 0 .478-.025.603-.066.191-.065.312-.27.312-.542 0-.302-.14-.503-.397-.573-.1-.025-.246-.035-.523-.035h-.96V4.89h.965zm-1.417-1.623h1.422c.463 0 .643.015.82.07.361.11.592.473.592.92 0 .311-.12.608-.321.789-.206.19-.412.236-1.07.236h-.99v1.336h-.453V3.267zM52.829 4.89c.261 0 .477-.025.603-.066.19-.065.311-.27.311-.542 0-.302-.14-.503-.397-.573-.1-.025-.246-.035-.522-.035h-.96V4.89h.965zm-1.417-1.623h1.422c.462 0 .643.015.819.07.362.11.593.473.593.92 0 .311-.12.608-.322.789-.206.19-.412.236-1.07.236h-.99v1.336h-.452V3.267zM55.03 3.267h.452V6.21h2.066v.407H55.03zM59.292 5.232v1.386h-.453V5.232l-1.482-1.965h.598l1.12 1.568 1.116-1.568h.573zM4.133 4.88v.16l.135-.09-.135-.07M2.84 8.815c.04-.02.07-.035.1-.052l3.42-1.974c.664-.383 1.328-.766 1.99-1.152.037-.021.08-.069.08-.105.008-.22.005-.439.005-.658V4.56l-.084.046-3.03 1.75c-.427.245-.854.491-1.28.738-.082.049-.166.07-.25.012a.218.218 0 01-.098-.231c.004-.021.002-.043.002-.064-.003-.699-.007-1.397-.007-2.096 0-.068-.024-.105-.08-.136-.125-.068-.248-.14-.372-.209l-.396-.217v4.663zM1.7 1.441c.044.028.067.044.092.058l1.111.64c1.046.605 2.092 1.21 3.139 1.813.232.134.241.31.01.452a79.346 79.346 0 01-1.832 1.07c-.064.035-.09.077-.087.15.007.171.006.343.007.514v.37l4.072-2.34c-.034-.024-.053-.039-.074-.05-.515-.299-1.031-.596-1.546-.894-1.238-.714-2.478-1.424-3.71-2.15-.203-.12-.357-.152-.558-.001-.186.14-.402.24-.624.368m.671 7.4c.002-.053.006-.091.006-.13a1763.357 1763.357 0 00-.008-4.937c0-.183.164-.293.332-.217.041.02.08.045.12.068.606.347 1.211.695 1.818 1.04.024.014.066.022.087.01.265-.15.529-.303.806-.464L1.47 1.843v.12l.002 2.571c0 1.157.008 2.313-.01 3.469-.003.249.066.387.288.488.212.096.408.228.621.35M1.052 4.957c0-1.135.002-2.27-.002-3.405 0-.158.063-.26.196-.338.388-.224.772-.454 1.16-.678.102-.059.205-.097.33-.024.796.467 1.596.928 2.395 1.39 1.173.676 2.346 1.354 3.52 2.026.161.092.23.206.224.396-.012.428-.005.856.002 1.284.003.155-.047.258-.186.339-1.965 1.13-3.927 2.263-5.888 3.4-.155.09-.281.092-.434 0a30.104 30.104 0 00-1.11-.64c-.15-.082-.212-.181-.21-.356.007-1.132.003-2.263.003-3.394M61.703 3.372h-.206v-.105h.527v.105h-.206v.543h-.115zM62.193 3.267h.121l.197.306.198-.306h.121v.648h-.114V3.45l-.205.306h-.003l-.203-.304v.463h-.112z" fill-rule="nonzero"/></g></svg>
